# xmcd
#
# Track frame offsets: 
#        150
#        19856
#        33508
#
# Disc length: 791 seconds
#
# Revision: 6
# Processed by: cddbd v1.5.2PL0 Copyright (c) Steve Scherf et al.
# Submitted via: ExactAudioCopyFreeDBPlugin 1.0
#
DISCID=1c031503
DTITLE=上海アリス幻樂団 - 東方求聞史紀　～ Perfect Memento in Strict Sense.
DYEAR=2007
DGENRE=soundtrack
TTITLE0=ジャパニーズサーガ
TTITLE1=阿礼の子供
TTITLE2=夜の鳩山を飛ぶ　- Power Mix
EXTD=YEAR: 2007
EXTT0=
EXTT1=
EXTT2=
PLAYORDER=
